# xmcd CD database file
#
# Track frame offsets:
#	150
#	55773
#	76395
#	204885
#
# Disc length: 3126 seconds
#
# Revision: 0
# Processed by: cddbd v1.5PL3 Copyright (c) Steve Scherf et al.
# Submitted via: CDex 1.51
#
DISCID=270c3404
DTITLE=Anthony Braxton - Braxton-SImmons-Evans-Vida-Blumenkranz-Pride [CD2]
DYEAR=1900
DGENRE=Jazz
TTITLE0=Ancient East, Part 2
TTITLE1=Ballad
TTITLE2=Driggs Drag
TTITLE3=Echoing Dolphy
EXTD=
EXTT0=
EXTT1=
EXTT2=
EXTT3=
PLAYORDER=
